<svg id="visual" viewBox="0 0 960 540" width="960" height="540" xmlns="http://www.w3.org/2000/svg" xmlns:xlink="http://www.w3.org/1999/xlink" version="1.1"><g><g transform="translate(725 194)"><path d="M0 -75.7L65.5 -37.8L65.5 37.8L0 75.7L-65.5 37.8L-65.5 -37.8Z" fill="none" stroke="#065288" stroke-width="4"></path></g><g transform="translate(202 332)"><path d="M0 -74L64.1 -37L64.1 37L0 74L-64.1 37L-64.1 -37Z" fill="none" stroke="#065288" stroke-width="4"></path></g><g transform="translate(788 409)"><path d="M0 -68L58.9 -34L58.9 34L0 68L-58.9 34L-58.9 -34Z" fill="none" stroke="#065288" stroke-width="4"></path></g><g transform="translate(278 76)"><path d="M0 -60L52 -30L52 30L0 60L-52 30L-52 -30Z" stroke="#065288" fill="none" stroke-width="4"></path></g><g transform="translate(421 293)"><path d="M0 -57L49.4 -28.5L49.4 28.5L0 57L-49.4 28.5L-49.4 -28.5Z" stroke="#065288" fill="none" stroke-width="4"></path></g><g transform="translate(485 103)"><path d="M0 -64L55.4 -32L55.4 32L0 64L-55.4 32L-55.4 -32Z" stroke="#065288" fill="none" stroke-width="4"></path></g><g transform="translate(128 119)"><path d="M0 -72L62.4 -36L62.4 36L0 72L-62.4 36L-62.4 -36Z" stroke="#065288" fill="none" stroke-width="4"></path></g><g transform="translate(463 464)"><path d="M0 -58L50.2 -29L50.2 29L0 58L-50.2 29L-50.2 -29Z" stroke="#065288" fill="none" stroke-width="4"></path></g></g></svg>