<svg id="visual" viewBox="0 0 900 900" width="900" height="900" xmlns="http://www.w3.org/2000/svg" xmlns:xlink="http://www.w3.org/1999/xlink" version="1.1"><g><g transform="translate(778 337)"><path d="M0 -94.6L81.9 -47.3L81.9 47.3L0 94.6L-81.9 47.3L-81.9 -47.3Z" fill="none" stroke="#065288" stroke-width="4"></path></g><g transform="translate(710 694)"><path d="M0 -71L61.5 -35.5L61.5 35.5L0 71L-61.5 35.5L-61.5 -35.5Z" fill="none" stroke="#065288" stroke-width="4"></path></g><g transform="translate(710 103)"><path d="M0 -72L62.4 -36L62.4 36L0 72L-62.4 36L-62.4 -36Z" fill="none" stroke="#065288" stroke-width="4"></path></g><g transform="translate(117 188)"><path d="M0 -80L69.3 -40L69.3 40L0 80L-69.3 40L-69.3 -40Z" stroke="#065288" fill="none" stroke-width="4"></path></g><g transform="translate(259 770)"><path d="M0 -78L67.5 -39L67.5 39L0 78L-67.5 39L-67.5 -39Z" stroke="#065288" fill="none" stroke-width="4"></path></g><g transform="translate(405 263)"><path d="M0 -72L62.4 -36L62.4 36L0 72L-62.4 36L-62.4 -36Z" stroke="#065288" fill="none" stroke-width="4"></path></g><g transform="translate(158 430)"><path d="M0 -75L65 -37.5L65 37.5L0 75L-65 37.5L-65 -37.5Z" stroke="#065288" fill="none" stroke-width="4"></path></g><g transform="translate(453 506)"><path d="M0 -85L73.6 -42.5L73.6 42.5L0 85L-73.6 42.5L-73.6 -42.5Z" stroke="#065288" fill="none" stroke-width="4"></path></g></g></svg>