<svg id="visual" viewBox="0 0 960 540" width="960" height="540" xmlns="http://www.w3.org/2000/svg" xmlns:xlink="http://www.w3.org/1999/xlink" version="1.1"><g><g transform="translate(257 262)"><path d="M0 -75.7L65.5 -37.8L65.5 37.8L0 75.7L-65.5 37.8L-65.5 -37.8Z" fill="none" stroke="#033152" stroke-width="4"></path></g><g transform="translate(706 376)"><path d="M0 -72L62.4 -36L62.4 36L0 72L-62.4 36L-62.4 -36Z" fill="none" stroke="#033152" stroke-width="4"></path></g><g transform="translate(141 131)"><path d="M0 -63L54.6 -31.5L54.6 31.5L0 63L-54.6 31.5L-54.6 -31.5Z" fill="none" stroke="#033152" stroke-width="4"></path></g><g transform="translate(123 417)"><path d="M0 -59L51.1 -29.5L51.1 29.5L0 59L-51.1 29.5L-51.1 -29.5Z" stroke="#033152" fill="none" stroke-width="4"></path></g><g transform="translate(846 437)"><path d="M0 -57L49.4 -28.5L49.4 28.5L0 57L-49.4 28.5L-49.4 -28.5Z" stroke="#033152" fill="none" stroke-width="4"></path></g><g transform="translate(485 110)"><path d="M0 -74L64.1 -37L64.1 37L0 74L-64.1 37L-64.1 -37Z" stroke="#033152" fill="none" stroke-width="4"></path></g><g transform="translate(769 185)"><path d="M0 -67L58 -33.5L58 33.5L0 67L-58 33.5L-58 -33.5Z" stroke="#033152" fill="none" stroke-width="4"></path></g><g transform="translate(519 318)"><path d="M0 -57L49.4 -28.5L49.4 28.5L0 57L-49.4 28.5L-49.4 -28.5Z" stroke="#033152" fill="none" stroke-width="4"></path></g></g></svg>